<?xml version="1.0" encoding="UTF-8"?>
<svg width="32" height="32" viewBox="0 0 24 24" fill="none" xmlns="http://www.w3.org/2000/svg">
  <path d="M15.5 2H8.6C8.6 2 8.6 2 8.5 2C6.5 2 6 3.3 6 4.5V19.5C6 20.7 6.5 22 8.5 22C8.6 22 8.6 22 8.6 22H15.5C15.5 22 15.5 22 15.6 22C17.5 22 18 20.7 18 19.5V4.5C18 3.3 17.5 2 15.6 2C15.5 2 15.5 2 15.5 2Z" stroke="#3B82F6" stroke-width="1.5" stroke-linecap="round" stroke-linejoin="round"/>
  <path d="M10.5 4C10.5 4.6 11 5 11.5 5H12.5C13.1 5 13.5 4.5 13.5 4C13.5 3.4 13 3 12.5 3H11.5C11 3 10.5 3.5 10.5 4Z" stroke="#3B82F6" stroke-width="1.5" stroke-linecap="round" stroke-linejoin="round"/>
  <path d="M10 7.5H14" stroke="#3B82F6" stroke-width="1.5" stroke-linecap="round" stroke-linejoin="round"/>
  <path d="M10 10.5H14" stroke="#3B82F6" stroke-width="1.5" stroke-linecap="round" stroke-linejoin="round"/>
  <path d="M10 13.5H14" stroke="#3B82F6" stroke-width="1.5" stroke-linecap="round" stroke-linejoin="round"/>
  <path d="M10 16.5H14" stroke="#3B82F6" stroke-width="1.5" stroke-linecap="round" stroke-linejoin="round"/>
</svg>